<svg id="Capa_1" enable-background="new 0 0 511.995 511.995" height="512" viewBox="0 0 511.995 511.995" width="512" xmlns="http://www.w3.org/2000/svg"><path d="m11.801 468.931 101.948 41.186c9.544 3.854 20.716-.905 24.563-10.428l3.463-8.572c7.173-17.756-1.396-38.028-19.103-45.273l44.857-111.036c25.311-4.115 47.956-20.949 58.243-46.411l30.225-74.815 30.225 74.815c7.583 18.771 22.022 33.465 40.658 41.376 5.719 2.428 11.625 4.113 17.605 5.083l44.838 110.988c-17.707 7.245-26.276 27.517-19.103 45.273l3.463 8.573c3.848 9.523 15.02 14.282 24.563 10.427l101.947-41.186c9.646-3.896 14.325-14.916 10.427-24.563l-3.463-8.571c-7.08-17.527-27.588-26.324-45.19-19.3l-44.866-111.058c14.406-19.281 19.407-45.024 11.307-69.331v-.001-.001c-.568-1.705-58.231-144.578-58.231-144.578-3.29-8.143-9.554-14.517-17.638-17.949-8.083-3.431-17.02-3.51-25.164-.22l-71.378 28.836-71.377-28.837c-8.143-3.29-17.08-3.211-25.164.22-8.084 3.432-14.348 9.807-17.638 17.949l-13.745 34.023c-1.551 3.841.304 8.212 4.145 9.764 3.841 1.55 8.212-.304 9.763-4.145l13.745-34.023c1.789-4.428 5.195-7.895 9.591-9.761 4.396-1.867 9.255-1.909 13.684-.12l79.578 32.148c9.141 3.693 13.573 14.134 9.88 23.274l-5.173 12.805c-28.985 0-52.628 18.609-73.692 36.336-7.547 6.351-14.728 12.394-22.437 17.687-19.249 13.215-42.202 20.525-65.499 21.464l28.763-71.196c1.551-3.841-.304-8.212-4.145-9.764-3.842-1.55-8.212.304-9.763 4.145 0 0-32.358 80.234-32.926 81.939v.001.001c-8.1 24.307-3.099 50.05 11.307 69.331l-44.867 111.06c-17.602-7.021-38.109 1.771-45.189 19.3l-3.464 8.572c-3.897 9.648.781 20.667 10.427 24.563zm17.579-38.34c4.822-2.047 10.317-2.095 15.173-.132l72.357 29.231c10.136 4.095 15.051 15.672 10.956 25.809l-3.463 8.572c-1.003 2.483-2.948 2.138-5.037 2.138l-101.946-41.186c-1.956-.789-2.927-3.081-2.138-5.036l3.464-8.572c1.983-4.91 5.76-8.754 10.634-10.824zm317.298-343.205c4.396 1.866 7.802 5.333 9.591 9.76l54.067 133.833c-21.891-.886-43.694-7.362-62.159-19.242-24.511-15.769-43.598-39.203-71.105-50.321l5.296-13.109c5.368-13.288 1.393-28.065-8.81-37.03l59.437-24.011c4.427-1.789 9.287-1.746 13.683.12zm128.192 341.619c8.007 0 15.386 5.001 18.379 12.411l3.463 8.571c.79 1.955-.182 4.247-2.138 5.037l-101.947 41.186c-2.109 0-4.039.331-5.037-2.138l-3.463-8.572c-4.095-10.136.82-21.714 10.956-25.809l72.358-29.231c2.401-.971 4.916-1.455 7.429-1.455zm-71.641 11.217-42.231-104.534c8.096-.489 16.148-2.28 23.888-5.406 7.821-3.16 14.832-7.509 20.924-12.744l42.247 104.575zm-23.961-123.849c-15.056 6.083-31.579 5.938-46.527-.407-14.947-6.345-26.528-18.131-32.611-33.188l-36.044-89.218 7.352-18.198c26.452 10.615 45.027 33.811 68.622 48.991 21.943 14.118 48.539 21.747 75.493 21.747h.117c6.818 28.843-8.413 58.966-36.402 70.273zm-282.943-70.274h.117c26.952-.001 53.551-7.629 75.493-21.746 27.719-17.834 50.472-49.027 85.12-53.433l-45.19 111.858c-12.398 30.69-48.381 46.032-79.138 33.595-27.989-11.307-43.22-41.43-36.402-70.274zm9.859 71.438c6.092 5.235 13.103 9.584 20.924 12.744 7.837 3.166 15.896 4.907 23.901 5.376l-42.243 104.565-44.829-18.11z"/><path d="m255.997 70.802c19.372 0 35.132-15.761 35.132-35.133s-15.759-35.132-35.132-35.132-35.132 15.76-35.132 35.132 15.76 35.133 35.132 35.133zm0-55.265c11.101 0 20.132 9.031 20.132 20.132s-9.031 20.133-20.132 20.133-20.132-9.032-20.132-20.133 9.031-20.132 20.132-20.132z"/></svg>